<mxfile host="app.diagrams.net" modified="2021-04-04T12:28:12.840Z" agent="5.0 (Windows NT 10.0; Win64; x64) AppleWebKit/537.36 (KHTML, like Gecko) Chrome/89.0.4389.90 Safari/537.36" etag="5ULguE0niE9a8lRvoaO4" version="14.2.7" type="github">
  <diagram id="lihffVH3CCGirmxHTpf7" name="Page-1">
    <mxGraphModel dx="1865" dy="548" grid="1" gridSize="10" guides="1" tooltips="1" connect="1" arrows="1" fold="1" page="1" pageScale="1" pageWidth="827" pageHeight="1169" math="0" shadow="0">
      <root>
        <mxCell id="0" />
        <mxCell id="1" parent="0" />
        <mxCell id="4jbWWsXagvDYImcnGV8a-1" value="" style="rounded=1;whiteSpace=wrap;html=1;fillColor=none;strokeColor=#B3B3B3;" parent="1" vertex="1">
          <mxGeometry x="200" y="200" width="90" height="30" as="geometry" />
        </mxCell>
        <mxCell id="4jbWWsXagvDYImcnGV8a-8" style="edgeStyle=orthogonalEdgeStyle;rounded=0;orthogonalLoop=1;jettySize=auto;html=1;fontColor=#2080EB;strokeColor=#B3B3B3;" parent="1" edge="1">
          <mxGeometry relative="1" as="geometry">
            <mxPoint x="244.66" y="156" as="sourcePoint" />
            <mxPoint x="244.66" y="186" as="targetPoint" />
            <Array as="points" />
          </mxGeometry>
        </mxCell>
        <mxCell id="4jbWWsXagvDYImcnGV8a-2" value="#2680EB" style="text;html=1;align=center;verticalAlign=middle;whiteSpace=wrap;rounded=0;fontColor=#333333;" parent="1" vertex="1">
          <mxGeometry x="235" y="120" width="40" height="20" as="geometry" />
        </mxCell>
        <mxCell id="4jbWWsXagvDYImcnGV8a-9" value="" style="rounded=1;whiteSpace=wrap;html=1;fillColor=#2680EB;strokeColor=none;" parent="1" vertex="1">
          <mxGeometry x="205" y="207.5" width="15" height="15" as="geometry" />
        </mxCell>
        <mxCell id="4jbWWsXagvDYImcnGV8a-10" value="&lt;font&gt;blue-400&lt;/font&gt;" style="text;html=1;align=center;verticalAlign=middle;whiteSpace=wrap;rounded=0;fontColor=#1A1A1A;" parent="1" vertex="1">
          <mxGeometry x="220" y="207.5" width="62" height="15" as="geometry" />
        </mxCell>
        <mxCell id="4jbWWsXagvDYImcnGV8a-11" value="" style="rounded=1;whiteSpace=wrap;html=1;fillColor=#2680EB;strokeColor=none;" parent="1" vertex="1">
          <mxGeometry x="205" y="122.5" width="15" height="15" as="geometry" />
        </mxCell>
        <mxCell id="4jbWWsXagvDYImcnGV8a-12" value="" style="rounded=1;whiteSpace=wrap;html=1;fillColor=none;strokeColor=#B3B3B3;" parent="1" vertex="1">
          <mxGeometry x="200" y="280" width="130" height="30" as="geometry" />
        </mxCell>
        <mxCell id="4jbWWsXagvDYImcnGV8a-13" value="" style="rounded=1;whiteSpace=wrap;html=1;fillColor=#2680EB;strokeColor=none;" parent="1" vertex="1">
          <mxGeometry x="205" y="287.5" width="15" height="15" as="geometry" />
        </mxCell>
        <mxCell id="4jbWWsXagvDYImcnGV8a-14" value="primary-color" style="text;html=1;align=center;verticalAlign=middle;whiteSpace=wrap;rounded=0;fontColor=#1A1A1A;" parent="1" vertex="1">
          <mxGeometry x="223" y="288.5" width="80" height="12.5" as="geometry" />
        </mxCell>
        <mxCell id="4jbWWsXagvDYImcnGV8a-15" style="edgeStyle=orthogonalEdgeStyle;rounded=0;orthogonalLoop=1;jettySize=auto;html=1;fontColor=#2080EB;strokeColor=#B3B3B3;" parent="1" edge="1">
          <mxGeometry relative="1" as="geometry">
            <mxPoint x="244.66" y="240" as="sourcePoint" />
            <mxPoint x="244.66" y="270" as="targetPoint" />
            <Array as="points" />
          </mxGeometry>
        </mxCell>
        <mxCell id="4jbWWsXagvDYImcnGV8a-20" value="" style="rounded=1;whiteSpace=wrap;html=1;fillColor=none;strokeColor=#B3B3B3;" parent="1" vertex="1">
          <mxGeometry x="200" y="360" width="160" height="30" as="geometry" />
        </mxCell>
        <mxCell id="4jbWWsXagvDYImcnGV8a-21" value="" style="rounded=1;whiteSpace=wrap;html=1;fillColor=#2680EB;strokeColor=none;" parent="1" vertex="1">
          <mxGeometry x="205" y="367.5" width="15" height="15" as="geometry" />
        </mxCell>
        <mxCell id="4jbWWsXagvDYImcnGV8a-22" value="&lt;p&gt;&lt;span style=&quot;font-family: &amp;#34;consolas&amp;#34; , &amp;#34;courier new&amp;#34; , monospace ; text-align: left&quot;&gt;&lt;font style=&quot;font-size: 12px&quot;&gt;btn-primary-bg&lt;/font&gt;&lt;/span&gt;&lt;/p&gt;" style="text;html=1;align=center;verticalAlign=middle;whiteSpace=wrap;rounded=0;fontColor=#1A1A1A;" parent="1" vertex="1">
          <mxGeometry x="218" y="368.5" width="117" height="11.5" as="geometry" />
        </mxCell>
        <mxCell id="4jbWWsXagvDYImcnGV8a-23" style="edgeStyle=orthogonalEdgeStyle;rounded=0;orthogonalLoop=1;jettySize=auto;html=1;fontColor=#2080EB;strokeColor=#B3B3B3;" parent="1" edge="1">
          <mxGeometry relative="1" as="geometry">
            <mxPoint x="244.65999999999997" y="320" as="sourcePoint" />
            <mxPoint x="244.65999999999997" y="350" as="targetPoint" />
            <Array as="points" />
          </mxGeometry>
        </mxCell>
        <mxCell id="pVcXusEhhN36g1UroAC--1" value="Global Token" style="text;html=1;strokeColor=none;fillColor=none;align=center;verticalAlign=middle;whiteSpace=wrap;rounded=0;labelBackgroundColor=none;fontColor=#1A1A1A;" vertex="1" parent="1">
          <mxGeometry x="80" y="197.5" width="90" height="25" as="geometry" />
        </mxCell>
        <mxCell id="pVcXusEhhN36g1UroAC--2" value="Alias Token" style="text;html=1;strokeColor=none;fillColor=none;align=center;verticalAlign=middle;whiteSpace=wrap;rounded=0;labelBackgroundColor=none;fontColor=#1A1A1A;" vertex="1" parent="1">
          <mxGeometry x="85" y="280" width="90" height="25" as="geometry" />
        </mxCell>
        <mxCell id="pVcXusEhhN36g1UroAC--3" value="&lt;p&gt;&lt;span style=&quot;font-family: &amp;quot;open sans&amp;quot; , &amp;quot;clear sans&amp;quot; , &amp;quot;helvetica neue&amp;quot; , &amp;quot;helvetica&amp;quot; , &amp;quot;arial&amp;quot; , sans-serif ; text-align: left ; background-color: rgb(255 , 255 , 255)&quot;&gt;&lt;font style=&quot;font-size: 12px&quot;&gt;Component-specific Token&lt;/font&gt;&lt;/span&gt;&lt;/p&gt;" style="text;html=1;strokeColor=none;fillColor=none;align=center;verticalAlign=middle;whiteSpace=wrap;rounded=0;labelBackgroundColor=none;fontColor=#1A1A1A;" vertex="1" parent="1">
          <mxGeometry x="-23" y="360" width="220" height="25" as="geometry" />
        </mxCell>
        <mxCell id="pVcXusEhhN36g1UroAC--21" value="" style="rounded=1;whiteSpace=wrap;html=1;fillColor=none;strokeColor=#B3B3B3;" vertex="1" parent="1">
          <mxGeometry x="615" y="205" width="100" height="30" as="geometry" />
        </mxCell>
        <mxCell id="pVcXusEhhN36g1UroAC--22" style="edgeStyle=orthogonalEdgeStyle;rounded=0;orthogonalLoop=1;jettySize=auto;html=1;fontColor=#2080EB;strokeColor=#B3B3B3;" edge="1" parent="1">
          <mxGeometry relative="1" as="geometry">
            <mxPoint x="659.6599999999999" y="161" as="sourcePoint" />
            <mxPoint x="659.6599999999999" y="191" as="targetPoint" />
            <Array as="points" />
          </mxGeometry>
        </mxCell>
        <mxCell id="pVcXusEhhN36g1UroAC--23" value="24px" style="text;html=1;align=center;verticalAlign=middle;whiteSpace=wrap;rounded=0;fontColor=#333333;" vertex="1" parent="1">
          <mxGeometry x="618" y="122.5" width="95" height="20" as="geometry" />
        </mxCell>
        <mxCell id="pVcXusEhhN36g1UroAC--25" value="&lt;span style=&quot;color: rgb(51 , 51 , 51)&quot;&gt;padding-lg&lt;/span&gt;" style="text;html=1;align=center;verticalAlign=middle;whiteSpace=wrap;rounded=0;fontColor=#1A1A1A;" vertex="1" parent="1">
          <mxGeometry x="640" y="212.5" width="62" height="15" as="geometry" />
        </mxCell>
        <mxCell id="pVcXusEhhN36g1UroAC--30" style="edgeStyle=orthogonalEdgeStyle;rounded=0;orthogonalLoop=1;jettySize=auto;html=1;fontColor=#2080EB;strokeColor=#B3B3B3;" edge="1" parent="1">
          <mxGeometry relative="1" as="geometry">
            <mxPoint x="659.6599999999999" y="245" as="sourcePoint" />
            <mxPoint x="659.6599999999999" y="275" as="targetPoint" />
            <Array as="points" />
          </mxGeometry>
        </mxCell>
        <mxCell id="pVcXusEhhN36g1UroAC--31" value="" style="rounded=1;whiteSpace=wrap;html=1;fillColor=none;strokeColor=#B3B3B3;" vertex="1" parent="1">
          <mxGeometry x="615" y="285" width="230" height="30" as="geometry" />
        </mxCell>
        <mxCell id="pVcXusEhhN36g1UroAC--33" value="&lt;p style=&quot;text-align: left&quot;&gt;&lt;font face=&quot;consolas, courier new, monospace&quot;&gt;btn-padding-horizontal-lg&lt;/font&gt;&lt;br&gt;&lt;/p&gt;" style="text;html=1;align=center;verticalAlign=middle;whiteSpace=wrap;rounded=0;fontColor=#1A1A1A;" vertex="1" parent="1">
          <mxGeometry x="633" y="293.5" width="182" height="11.5" as="geometry" />
        </mxCell>
        <mxCell id="pVcXusEhhN36g1UroAC--35" value="Alias Token" style="text;html=1;strokeColor=none;fillColor=none;align=center;verticalAlign=middle;whiteSpace=wrap;rounded=0;labelBackgroundColor=none;fontColor=#1A1A1A;" vertex="1" parent="1">
          <mxGeometry x="500" y="202.5" width="90" height="25" as="geometry" />
        </mxCell>
        <mxCell id="pVcXusEhhN36g1UroAC--37" value="&lt;p&gt;&lt;span style=&quot;font-family: &amp;quot;open sans&amp;quot; , &amp;quot;clear sans&amp;quot; , &amp;quot;helvetica neue&amp;quot; , &amp;quot;helvetica&amp;quot; , &amp;quot;arial&amp;quot; , sans-serif ; text-align: left ; background-color: rgb(255 , 255 , 255)&quot;&gt;&lt;font style=&quot;font-size: 12px&quot;&gt;Component-specific Token&lt;/font&gt;&lt;/span&gt;&lt;/p&gt;" style="text;html=1;strokeColor=none;fillColor=none;align=center;verticalAlign=middle;whiteSpace=wrap;rounded=0;labelBackgroundColor=none;fontColor=#1A1A1A;" vertex="1" parent="1">
          <mxGeometry x="390" y="282" width="220" height="25" as="geometry" />
        </mxCell>
        <mxCell id="pVcXusEhhN36g1UroAC--38" value="Color" style="text;html=1;strokeColor=none;fillColor=none;align=center;verticalAlign=middle;whiteSpace=wrap;rounded=0;labelBackgroundColor=none;fontColor=#1A1A1A;" vertex="1" parent="1">
          <mxGeometry x="220" y="60" width="40" height="20" as="geometry" />
        </mxCell>
        <mxCell id="pVcXusEhhN36g1UroAC--39" value="Padding" style="text;html=1;strokeColor=none;fillColor=none;align=center;verticalAlign=middle;whiteSpace=wrap;rounded=0;labelBackgroundColor=none;fontColor=#1A1A1A;" vertex="1" parent="1">
          <mxGeometry x="645" y="60" width="40" height="20" as="geometry" />
        </mxCell>
        <mxCell id="pVcXusEhhN36g1UroAC--59" style="edgeStyle=orthogonalEdgeStyle;rounded=0;orthogonalLoop=1;jettySize=auto;html=1;fontColor=#2080EB;strokeColor=#B3B3B3;" edge="1" parent="1">
          <mxGeometry relative="1" as="geometry">
            <mxPoint x="1167.6599999999999" y="156" as="sourcePoint" />
            <mxPoint x="1167.6599999999999" y="186" as="targetPoint" />
            <Array as="points" />
          </mxGeometry>
        </mxCell>
        <mxCell id="pVcXusEhhN36g1UroAC--60" value="#2680EB" style="text;html=1;align=center;verticalAlign=middle;whiteSpace=wrap;rounded=0;fontColor=#333333;" vertex="1" parent="1">
          <mxGeometry x="1158" y="120" width="40" height="20" as="geometry" />
        </mxCell>
        <mxCell id="pVcXusEhhN36g1UroAC--63" value="" style="rounded=1;whiteSpace=wrap;html=1;fillColor=#2680EB;strokeColor=none;" vertex="1" parent="1">
          <mxGeometry x="1128" y="122.5" width="15" height="15" as="geometry" />
        </mxCell>
        <mxCell id="pVcXusEhhN36g1UroAC--64" value="" style="rounded=1;whiteSpace=wrap;html=1;fillColor=none;strokeColor=#B3B3B3;" vertex="1" parent="1">
          <mxGeometry x="1123" y="200" width="130" height="30" as="geometry" />
        </mxCell>
        <mxCell id="pVcXusEhhN36g1UroAC--65" value="" style="rounded=1;whiteSpace=wrap;html=1;fillColor=#2680EB;strokeColor=none;" vertex="1" parent="1">
          <mxGeometry x="1128" y="207.5" width="15" height="15" as="geometry" />
        </mxCell>
        <mxCell id="pVcXusEhhN36g1UroAC--66" value="color-link-1" style="text;html=1;align=center;verticalAlign=middle;whiteSpace=wrap;rounded=0;fontColor=#1A1A1A;" vertex="1" parent="1">
          <mxGeometry x="1146" y="208.5" width="80" height="12.5" as="geometry" />
        </mxCell>
        <mxCell id="pVcXusEhhN36g1UroAC--68" value="" style="rounded=1;whiteSpace=wrap;html=1;fillColor=none;strokeColor=#B3B3B3;" vertex="1" parent="1">
          <mxGeometry x="1123" y="280" width="207" height="30" as="geometry" />
        </mxCell>
        <mxCell id="pVcXusEhhN36g1UroAC--69" value="" style="rounded=1;whiteSpace=wrap;html=1;fillColor=#2680EB;strokeColor=none;" vertex="1" parent="1">
          <mxGeometry x="1128" y="287.5" width="15" height="15" as="geometry" />
        </mxCell>
        <mxCell id="pVcXusEhhN36g1UroAC--70" value="&lt;p style=&quot;text-align: left&quot;&gt;&lt;font face=&quot;consolas, courier new, monospace&quot;&gt;btn-text-primary-color&lt;/font&gt;&lt;br&gt;&lt;/p&gt;" style="text;html=1;align=center;verticalAlign=middle;whiteSpace=wrap;rounded=0;fontColor=#1A1A1A;" vertex="1" parent="1">
          <mxGeometry x="1147" y="288.5" width="159" height="11.5" as="geometry" />
        </mxCell>
        <mxCell id="pVcXusEhhN36g1UroAC--71" style="edgeStyle=orthogonalEdgeStyle;rounded=0;orthogonalLoop=1;jettySize=auto;html=1;fontColor=#2080EB;strokeColor=#B3B3B3;" edge="1" parent="1">
          <mxGeometry relative="1" as="geometry">
            <mxPoint x="1167.6599999999999" y="240" as="sourcePoint" />
            <mxPoint x="1167.6599999999999" y="270" as="targetPoint" />
            <Array as="points" />
          </mxGeometry>
        </mxCell>
        <mxCell id="pVcXusEhhN36g1UroAC--73" value="Alias Token" style="text;html=1;strokeColor=none;fillColor=none;align=center;verticalAlign=middle;whiteSpace=wrap;rounded=0;labelBackgroundColor=none;fontColor=#1A1A1A;" vertex="1" parent="1">
          <mxGeometry x="1008" y="204" width="90" height="25" as="geometry" />
        </mxCell>
        <mxCell id="pVcXusEhhN36g1UroAC--74" value="&lt;p&gt;&lt;span style=&quot;font-family: &amp;quot;open sans&amp;quot; , &amp;quot;clear sans&amp;quot; , &amp;quot;helvetica neue&amp;quot; , &amp;quot;helvetica&amp;quot; , &amp;quot;arial&amp;quot; , sans-serif ; text-align: left ; background-color: rgb(255 , 255 , 255)&quot;&gt;&lt;font style=&quot;font-size: 12px&quot;&gt;Component-specific Token&lt;/font&gt;&lt;/span&gt;&lt;/p&gt;" style="text;html=1;strokeColor=none;fillColor=none;align=center;verticalAlign=middle;whiteSpace=wrap;rounded=0;labelBackgroundColor=none;fontColor=#1A1A1A;" vertex="1" parent="1">
          <mxGeometry x="900" y="284" width="220" height="25" as="geometry" />
        </mxCell>
        <mxCell id="pVcXusEhhN36g1UroAC--75" value="Fusion Color" style="text;html=1;strokeColor=none;fillColor=none;align=center;verticalAlign=middle;whiteSpace=wrap;rounded=0;labelBackgroundColor=none;fontColor=#1A1A1A;" vertex="1" parent="1">
          <mxGeometry x="1100" y="60" width="113" height="20" as="geometry" />
        </mxCell>
      </root>
    </mxGraphModel>
  </diagram>
</mxfile>
